<svg xmlns="http://www.w3.org/2000/svg" width="1400" height="900" viewBox="0 0 1400 900">
<defs>
<filter id="shadow" x="-20%" y="-20%" width="140%" height="140%"><feDropShadow dx="0" dy="10" stdDeviation="10" flood-color="#0f172a" flood-opacity="0.10"/></filter>
<marker id="arrow" viewBox="0 0 10 10" refX="8" refY="5" markerWidth="7" markerHeight="7" orient="auto-start-reverse"><path d="M 0 0 L 10 5 L 0 10 z" fill="#2563eb"/></marker>
<linearGradient id="soft" x1="0" x2="1"><stop offset="0" stop-color="#eff6ff"/><stop offset="1" stop-color="#ffffff"/></linearGradient>
</defs>
<rect x="0" y="0" width="1400" height="900" fill="#f8fafc"/>
<circle cx="1270" cy="80" r="190" fill="#dbeafe" opacity="0.38"/>
<circle cx="80" cy="820" r="160" fill="#e0f2fe" opacity="0.45"/>
<text x="56" y="72" font-size="36" fill="#0f172a" font-weight="800" font-family="Inter, Segoe UI, Arial, sans-serif">Free Token Lifecycle</text>
<text x="58" y="108" font-size="17" fill="#64748b" font-family="Inter, Segoe UI, Arial, sans-serif">Trial access without admin exposure</text>
<rect x="90" y="190" width="210" height="180" rx="20" fill="#ffffff" stroke="#dbeafe" stroke-width="1.4" filter="url(#shadow)"/>
<circle cx="120" cy="222" r="16" fill="#2563eb"/>
<text x="120" y="228" font-size="15" fill="white" text-anchor="middle" font-weight="700" font-family="Inter, Segoe UI, Arial, sans-serif">1</text>
<rect x="148" y="212" width="42" height="5" rx="3" fill="#2563eb"/>
<text x="148" y="242" font-size="18" fill="#0f172a" font-weight="700" text-anchor="start" font-family="Inter, Segoe UI, Arial, sans-serif">Issue</text>
<text x="114" y="286" font-size="13.5" fill="#334155" font-weight="normal" text-anchor="start" font-family="Inter, Segoe UI, Arial, sans-serif">Admin creates scoped token</text>
<line x1="300" y1="280" x2="335" y2="280" stroke="#2563eb" stroke-width="3" stroke-linecap="round" marker-end="url(#arrow)"/>
<rect x="345" y="190" width="210" height="180" rx="20" fill="#ffffff" stroke="#dbeafe" stroke-width="1.4" filter="url(#shadow)"/>
<circle cx="375" cy="222" r="16" fill="#0891b2"/>
<text x="375" y="228" font-size="15" fill="white" text-anchor="middle" font-weight="700" font-family="Inter, Segoe UI, Arial, sans-serif">2</text>
<rect x="403" y="212" width="42" height="5" rx="3" fill="#0891b2"/>
<text x="403" y="242" font-size="18" fill="#0f172a" font-weight="700" text-anchor="start" font-family="Inter, Segoe UI, Arial, sans-serif">Display once</text>
<text x="369" y="286" font-size="13.5" fill="#334155" font-weight="normal" text-anchor="start" font-family="Inter, Segoe UI, Arial, sans-serif">Raw secret shown one time</text>
<line x1="555" y1="280" x2="590" y2="280" stroke="#2563eb" stroke-width="3" stroke-linecap="round" marker-end="url(#arrow)"/>
<rect x="600" y="190" width="210" height="180" rx="20" fill="#ffffff" stroke="#dbeafe" stroke-width="1.4" filter="url(#shadow)"/>
<circle cx="630" cy="222" r="16" fill="#16a34a"/>
<text x="630" y="228" font-size="15" fill="white" text-anchor="middle" font-weight="700" font-family="Inter, Segoe UI, Arial, sans-serif">3</text>
<rect x="658" y="212" width="42" height="5" rx="3" fill="#16a34a"/>
<text x="658" y="242" font-size="18" fill="#0f172a" font-weight="700" text-anchor="start" font-family="Inter, Segoe UI, Arial, sans-serif">Use</text>
<text x="624" y="286" font-size="13.5" fill="#334155" font-weight="normal" text-anchor="start" font-family="Inter, Segoe UI, Arial, sans-serif">Caller can access draft endpoints</text>
<line x1="810" y1="280" x2="845" y2="280" stroke="#2563eb" stroke-width="3" stroke-linecap="round" marker-end="url(#arrow)"/>
<rect x="855" y="190" width="210" height="180" rx="20" fill="#ffffff" stroke="#dbeafe" stroke-width="1.4" filter="url(#shadow)"/>
<circle cx="885" cy="222" r="16" fill="#f97316"/>
<text x="885" y="228" font-size="15" fill="white" text-anchor="middle" font-weight="700" font-family="Inter, Segoe UI, Arial, sans-serif">4</text>
<rect x="913" y="212" width="42" height="5" rx="3" fill="#f97316"/>
<text x="913" y="242" font-size="18" fill="#0f172a" font-weight="700" text-anchor="start" font-family="Inter, Segoe UI, Arial, sans-serif">Meter</text>
<text x="879" y="286" font-size="13.5" fill="#334155" font-weight="normal" text-anchor="start" font-family="Inter, Segoe UI, Arial, sans-serif">Quota and latency are tracked</text>
<line x1="1065" y1="280" x2="1100" y2="280" stroke="#2563eb" stroke-width="3" stroke-linecap="round" marker-end="url(#arrow)"/>
<rect x="1110" y="190" width="210" height="180" rx="20" fill="#ffffff" stroke="#dbeafe" stroke-width="1.4" filter="url(#shadow)"/>
<circle cx="1140" cy="222" r="16" fill="#dc2626"/>
<text x="1140" y="228" font-size="15" fill="white" text-anchor="middle" font-weight="700" font-family="Inter, Segoe UI, Arial, sans-serif">5</text>
<rect x="1168" y="212" width="42" height="5" rx="3" fill="#dc2626"/>
<text x="1168" y="242" font-size="18" fill="#0f172a" font-weight="700" text-anchor="start" font-family="Inter, Segoe UI, Arial, sans-serif">Expire or revoke</text>
<text x="1134" y="286" font-size="13.5" fill="#334155" font-weight="normal" text-anchor="start" font-family="Inter, Segoe UI, Arial, sans-serif">Access stops cleanly</text>
<rect x="120" y="510" width="1160" height="230" rx="28" fill="#ffffff" stroke="#dbeafe" filter="url(#shadow)"/>
<text x="170" y="570" font-size="25" fill="#0f172a" font-weight="800" text-anchor="start" font-family="Inter, Segoe UI, Arial, sans-serif">Free token is a product feature, not a backdoor.</text>
<rect x="170" y="625" width="290" height="38" rx="19.0" fill="#2563eb" opacity="0.10" stroke="#2563eb" stroke-opacity="0.35"/><text x="315.0" y="649.0" text-anchor="middle" font-size="13" fill="#2563eb" font-weight="700" font-family="Inter, Segoe UI, Arial, sans-serif">environment-bound</text>
<rect x="500" y="625" width="290" height="38" rx="19.0" fill="#16a34a" opacity="0.10" stroke="#16a34a" stroke-opacity="0.35"/><text x="645.0" y="649.0" text-anchor="middle" font-size="13" fill="#16a34a" font-weight="700" font-family="Inter, Segoe UI, Arial, sans-serif">draft-only by default</text>
<rect x="830" y="625" width="290" height="38" rx="19.0" fill="#f97316" opacity="0.10" stroke="#f97316" stroke-opacity="0.35"/><text x="975.0" y="649.0" text-anchor="middle" font-size="13" fill="#f97316" font-weight="700" font-family="Inter, Segoe UI, Arial, sans-serif">daily / monthly quota</text>
<rect x="170" y="685" width="290" height="38" rx="19.0" fill="#7c3aed" opacity="0.10" stroke="#7c3aed" stroke-opacity="0.35"/><text x="315.0" y="709.0" text-anchor="middle" font-size="13" fill="#7c3aed" font-weight="700" font-family="Inter, Segoe UI, Arial, sans-serif">safe metadata logging</text>
<rect x="500" y="685" width="290" height="38" rx="19.0" fill="#0891b2" opacity="0.10" stroke="#0891b2" stroke-opacity="0.35"/><text x="645.0" y="709.0" text-anchor="middle" font-size="13" fill="#0891b2" font-weight="700" font-family="Inter, Segoe UI, Arial, sans-serif">revocable anytime</text>
</svg>