<svg xmlns="http://www.w3.org/2000/svg" width="1400" height="900" viewBox="0 0 1400 900">
<defs>
<filter id="shadow" x="-20%" y="-20%" width="140%" height="140%"><feDropShadow dx="0" dy="10" stdDeviation="10" flood-color="#0f172a" flood-opacity="0.10"/></filter>
<marker id="arrow" viewBox="0 0 10 10" refX="8" refY="5" markerWidth="7" markerHeight="7" orient="auto-start-reverse"><path d="M 0 0 L 10 5 L 0 10 z" fill="#2563eb"/></marker>
<linearGradient id="soft" x1="0" x2="1"><stop offset="0" stop-color="#eff6ff"/><stop offset="1" stop-color="#ffffff"/></linearGradient>
</defs>
<rect x="0" y="0" width="1400" height="900" fill="#f8fafc"/>
<circle cx="1270" cy="80" r="190" fill="#dbeafe" opacity="0.38"/>
<circle cx="80" cy="820" r="160" fill="#e0f2fe" opacity="0.45"/>
<text x="56" y="72" font-size="36" fill="#0f172a" font-weight="800" font-family="Inter, Segoe UI, Arial, sans-serif">Future Multi-Agent CMMS API Roadmap</text>
<text x="58" y="108" font-size="17" fill="#64748b" font-family="Inter, Segoe UI, Arial, sans-serif">Small specialist agents make high-value maintenance decisions easier to review</text>
<rect x="70" y="170" width="260" height="160" rx="20" fill="#ffffff" stroke="#dbeafe" stroke-width="1.4" filter="url(#shadow)"/>
<circle cx="100" cy="202" r="16" fill="#0891b2"/>
<text x="100" y="208" font-size="15" fill="white" text-anchor="middle" font-weight="700" font-family="Inter, Segoe UI, Arial, sans-serif">1</text>
<rect x="128" y="192" width="42" height="5" rx="3" fill="#0891b2"/>
<text x="128" y="222" font-size="18" fill="#0f172a" font-weight="700" text-anchor="start" font-family="Inter, Segoe UI, Arial, sans-serif">Intake</text>
<text x="94" y="266" font-size="13.5" fill="#334155" font-weight="normal" text-anchor="start" font-family="Inter, Segoe UI, Arial, sans-serif">summary and symptoms</text>
<rect x="390" y="170" width="260" height="160" rx="20" fill="#ffffff" stroke="#dbeafe" stroke-width="1.4" filter="url(#shadow)"/>
<circle cx="420" cy="202" r="16" fill="#2563eb"/>
<text x="420" y="208" font-size="15" fill="white" text-anchor="middle" font-weight="700" font-family="Inter, Segoe UI, Arial, sans-serif">2</text>
<rect x="448" y="192" width="42" height="5" rx="3" fill="#2563eb"/>
<text x="448" y="222" font-size="18" fill="#0f172a" font-weight="700" text-anchor="start" font-family="Inter, Segoe UI, Arial, sans-serif">Location</text>
<text x="414" y="266" font-size="13.5" fill="#334155" font-weight="normal" text-anchor="start" font-family="Inter, Segoe UI, Arial, sans-serif">site, building, room</text>
<rect x="710" y="170" width="260" height="160" rx="20" fill="#ffffff" stroke="#dbeafe" stroke-width="1.4" filter="url(#shadow)"/>
<circle cx="740" cy="202" r="16" fill="#7c3aed"/>
<text x="740" y="208" font-size="15" fill="white" text-anchor="middle" font-weight="700" font-family="Inter, Segoe UI, Arial, sans-serif">3</text>
<rect x="768" y="192" width="42" height="5" rx="3" fill="#7c3aed"/>
<text x="768" y="222" font-size="18" fill="#0f172a" font-weight="700" text-anchor="start" font-family="Inter, Segoe UI, Arial, sans-serif">Asset</text>
<text x="734" y="266" font-size="13.5" fill="#334155" font-weight="normal" text-anchor="start" font-family="Inter, Segoe UI, Arial, sans-serif">candidate equipment</text>
<rect x="1030" y="170" width="260" height="160" rx="20" fill="#ffffff" stroke="#dbeafe" stroke-width="1.4" filter="url(#shadow)"/>
<circle cx="1060" cy="202" r="16" fill="#f97316"/>
<text x="1060" y="208" font-size="15" fill="white" text-anchor="middle" font-weight="700" font-family="Inter, Segoe UI, Arial, sans-serif">4</text>
<rect x="1088" y="192" width="42" height="5" rx="3" fill="#f97316"/>
<text x="1088" y="222" font-size="18" fill="#0f172a" font-weight="700" text-anchor="start" font-family="Inter, Segoe UI, Arial, sans-serif">Priority</text>
<text x="1054" y="266" font-size="13.5" fill="#334155" font-weight="normal" text-anchor="start" font-family="Inter, Segoe UI, Arial, sans-serif">urgency and SLA cues</text>
<rect x="70" y="390" width="260" height="160" rx="20" fill="#ffffff" stroke="#dbeafe" stroke-width="1.4" filter="url(#shadow)"/>
<circle cx="100" cy="422" r="16" fill="#dc2626"/>
<text x="100" y="428" font-size="15" fill="white" text-anchor="middle" font-weight="700" font-family="Inter, Segoe UI, Arial, sans-serif">5</text>
<rect x="128" y="412" width="42" height="5" rx="3" fill="#dc2626"/>
<text x="128" y="442" font-size="18" fill="#0f172a" font-weight="700" text-anchor="start" font-family="Inter, Segoe UI, Arial, sans-serif">Policy</text>
<text x="94" y="486" font-size="13.5" fill="#334155" font-weight="normal" text-anchor="start" font-family="Inter, Segoe UI, Arial, sans-serif">safety and write gate</text>
<rect x="390" y="390" width="260" height="160" rx="20" fill="#ffffff" stroke="#dbeafe" stroke-width="1.4" filter="url(#shadow)"/>
<circle cx="420" cy="422" r="16" fill="#ca8a04"/>
<text x="420" y="428" font-size="15" fill="white" text-anchor="middle" font-weight="700" font-family="Inter, Segoe UI, Arial, sans-serif">6</text>
<rect x="448" y="412" width="42" height="5" rx="3" fill="#ca8a04"/>
<text x="448" y="442" font-size="18" fill="#0f172a" font-weight="700" text-anchor="start" font-family="Inter, Segoe UI, Arial, sans-serif">Parts</text>
<text x="414" y="486" font-size="13.5" fill="#334155" font-weight="normal" text-anchor="start" font-family="Inter, Segoe UI, Arial, sans-serif">planning hints</text>
<rect x="710" y="390" width="260" height="160" rx="20" fill="#ffffff" stroke="#dbeafe" stroke-width="1.4" filter="url(#shadow)"/>
<circle cx="740" cy="422" r="16" fill="#16a34a"/>
<text x="740" y="428" font-size="15" fill="white" text-anchor="middle" font-weight="700" font-family="Inter, Segoe UI, Arial, sans-serif">7</text>
<rect x="768" y="412" width="42" height="5" rx="3" fill="#16a34a"/>
<text x="768" y="442" font-size="18" fill="#0f172a" font-weight="700" text-anchor="start" font-family="Inter, Segoe UI, Arial, sans-serif">Scheduling</text>
<text x="734" y="486" font-size="13.5" fill="#334155" font-weight="normal" text-anchor="start" font-family="Inter, Segoe UI, Arial, sans-serif">queue and timing</text>
<rect x="1030" y="390" width="260" height="160" rx="20" fill="#ffffff" stroke="#dbeafe" stroke-width="1.4" filter="url(#shadow)"/>
<circle cx="1060" cy="422" r="16" fill="#0891b2"/>
<text x="1060" y="428" font-size="15" fill="white" text-anchor="middle" font-weight="700" font-family="Inter, Segoe UI, Arial, sans-serif">8</text>
<rect x="1088" y="412" width="42" height="5" rx="3" fill="#0891b2"/>
<text x="1088" y="442" font-size="18" fill="#0f172a" font-weight="700" text-anchor="start" font-family="Inter, Segoe UI, Arial, sans-serif">Analytics</text>
<text x="1054" y="486" font-size="13.5" fill="#334155" font-weight="normal" text-anchor="start" font-family="Inter, Segoe UI, Arial, sans-serif">history and trends</text>
<rect x="380" y="635" width="640" height="130" rx="28" fill="#ffffff" stroke="#bfdbfe" filter="url(#shadow)"/>
<text x="430" y="690" font-size="24" fill="#0f172a" font-weight="800" text-anchor="start" font-family="Inter, Segoe UI, Arial, sans-serif">Merge and debate step</text>
<text x="430" y="730" font-size="17" fill="#334155" font-weight="normal" text-anchor="start" font-family="Inter, Segoe UI, Arial, sans-serif">Conflicts become visible warnings instead of hidden assumptions.</text>
</svg>