<svg xmlns="http://www.w3.org/2000/svg" width="1400" height="900" viewBox="0 0 1400 900">
<defs>
<filter id="shadow" x="-20%" y="-20%" width="140%" height="140%"><feDropShadow dx="0" dy="10" stdDeviation="10" flood-color="#0f172a" flood-opacity="0.10"/></filter>
<marker id="arrow" viewBox="0 0 10 10" refX="8" refY="5" markerWidth="7" markerHeight="7" orient="auto-start-reverse"><path d="M 0 0 L 10 5 L 0 10 z" fill="#2563eb"/></marker>
<linearGradient id="soft" x1="0" x2="1"><stop offset="0" stop-color="#eff6ff"/><stop offset="1" stop-color="#ffffff"/></linearGradient>
</defs>
<rect x="0" y="0" width="1400" height="900" fill="#f8fafc"/>
<circle cx="1270" cy="80" r="190" fill="#dbeafe" opacity="0.38"/>
<circle cx="80" cy="820" r="160" fill="#e0f2fe" opacity="0.45"/>
<text x="56" y="72" font-size="36" fill="#0f172a" font-weight="800" font-family="Inter, Segoe UI, Arial, sans-serif">Targeted Maintenance Analytics Loop</text>
<text x="58" y="108" font-size="17" fill="#64748b" font-family="Inter, Segoe UI, Arial, sans-serif">The API learns where intake, codes, and operations need attention</text>
<rect x="140" y="250" width="230" height="160" rx="20" fill="#ffffff" stroke="#dbeafe" stroke-width="1.4" filter="url(#shadow)"/>
<circle cx="170" cy="282" r="16" fill="#2563eb"/>
<text x="170" y="288" font-size="15" fill="white" text-anchor="middle" font-weight="700" font-family="Inter, Segoe UI, Arial, sans-serif">1</text>
<rect x="198" y="272" width="42" height="5" rx="3" fill="#2563eb"/>
<text x="198" y="302" font-size="18" fill="#0f172a" font-weight="700" text-anchor="start" font-family="Inter, Segoe UI, Arial, sans-serif">Usage events</text>
<text x="164" y="346" font-size="13.5" fill="#334155" font-weight="normal" text-anchor="start" font-family="Inter, Segoe UI, Arial, sans-serif">safe metadata</text>
<rect x="430" y="160" width="230" height="160" rx="20" fill="#ffffff" stroke="#dbeafe" stroke-width="1.4" filter="url(#shadow)"/>
<circle cx="460" cy="192" r="16" fill="#f97316"/>
<text x="460" y="198" font-size="15" fill="white" text-anchor="middle" font-weight="700" font-family="Inter, Segoe UI, Arial, sans-serif">2</text>
<rect x="488" y="182" width="42" height="5" rx="3" fill="#f97316"/>
<text x="488" y="212" font-size="18" fill="#0f172a" font-weight="700" text-anchor="start" font-family="Inter, Segoe UI, Arial, sans-serif">Validation failures</text>
<text x="454" y="256" font-size="13.5" fill="#334155" font-weight="normal" text-anchor="start" font-family="Inter, Segoe UI, Arial, sans-serif">missing or invalid codes</text>
<rect x="780" y="250" width="230" height="160" rx="20" fill="#ffffff" stroke="#dbeafe" stroke-width="1.4" filter="url(#shadow)"/>
<circle cx="810" cy="282" r="16" fill="#7c3aed"/>
<text x="810" y="288" font-size="15" fill="white" text-anchor="middle" font-weight="700" font-family="Inter, Segoe UI, Arial, sans-serif">3</text>
<rect x="838" y="272" width="42" height="5" rx="3" fill="#7c3aed"/>
<text x="838" y="302" font-size="18" fill="#0f172a" font-weight="700" text-anchor="start" font-family="Inter, Segoe UI, Arial, sans-serif">Draft outcomes</text>
<text x="804" y="346" font-size="13.5" fill="#334155" font-weight="normal" text-anchor="start" font-family="Inter, Segoe UI, Arial, sans-serif">accepted, edited, rejected</text>
<rect x="700" y="560" width="230" height="160" rx="20" fill="#ffffff" stroke="#dbeafe" stroke-width="1.4" filter="url(#shadow)"/>
<circle cx="730" cy="592" r="16" fill="#0891b2"/>
<text x="730" y="598" font-size="15" fill="white" text-anchor="middle" font-weight="700" font-family="Inter, Segoe UI, Arial, sans-serif">4</text>
<rect x="758" y="582" width="42" height="5" rx="3" fill="#0891b2"/>
<text x="758" y="612" font-size="18" fill="#0f172a" font-weight="700" text-anchor="start" font-family="Inter, Segoe UI, Arial, sans-serif">Operational patterns</text>
<text x="724" y="656" font-size="13.5" fill="#334155" font-weight="normal" text-anchor="start" font-family="Inter, Segoe UI, Arial, sans-serif">repeat calls and weak matches</text>
<rect x="300" y="560" width="230" height="160" rx="20" fill="#ffffff" stroke="#dbeafe" stroke-width="1.4" filter="url(#shadow)"/>
<circle cx="330" cy="592" r="16" fill="#16a34a"/>
<text x="330" y="598" font-size="15" fill="white" text-anchor="middle" font-weight="700" font-family="Inter, Segoe UI, Arial, sans-serif">5</text>
<rect x="358" y="582" width="42" height="5" rx="3" fill="#16a34a"/>
<text x="358" y="612" font-size="18" fill="#0f172a" font-weight="700" text-anchor="start" font-family="Inter, Segoe UI, Arial, sans-serif">Improvement actions</text>
<text x="324" y="656" font-size="13.5" fill="#334155" font-weight="normal" text-anchor="start" font-family="Inter, Segoe UI, Arial, sans-serif">aliases, prompts, policies</text>
<line x1="370" y1="330" x2="430" y2="240" stroke="#2563eb" stroke-width="3" stroke-linecap="round" marker-end="url(#arrow)"/>
<line x1="660" y1="240" x2="780" y2="330" stroke="#2563eb" stroke-width="3" stroke-linecap="round" marker-end="url(#arrow)"/>
<line x1="1010" y1="330" x2="700" y2="640" stroke="#2563eb" stroke-width="3" stroke-linecap="round" marker-end="url(#arrow)"/>
<line x1="930" y1="640" x2="300" y2="640" stroke="#2563eb" stroke-width="3" stroke-linecap="round" marker-end="url(#arrow)"/>
<line x1="300" y1="640" x2="240" y2="410" stroke="#2563eb" stroke-width="3" stroke-linecap="round" marker-end="url(#arrow)"/>
<rect x="1030" y="180" width="280" height="520" rx="24" fill="#ffffff" stroke="#dbeafe" filter="url(#shadow)"/>
<text x="1060" y="235" font-size="22" fill="#0f172a" font-weight="800" text-anchor="start" font-family="Inter, Segoe UI, Arial, sans-serif">Questions it can answer</text>
<rect x="1060" y="285" width="220" height="38" rx="19.0" fill="#2563eb" opacity="0.10" stroke="#2563eb" stroke-opacity="0.35"/><text x="1170.0" y="309.0" text-anchor="middle" font-size="13" fill="#2563eb" font-weight="700" font-family="Inter, Segoe UI, Arial, sans-serif">Which phrases fail validation?</text>
<rect x="1060" y="355" width="220" height="38" rx="19.0" fill="#0891b2" opacity="0.10" stroke="#0891b2" stroke-opacity="0.35"/><text x="1170.0" y="379.0" text-anchor="middle" font-size="13" fill="#0891b2" font-weight="700" font-family="Inter, Segoe UI, Arial, sans-serif">Which assets repeat symptoms?</text>
<rect x="1060" y="425" width="220" height="38" rx="19.0" fill="#f97316" opacity="0.10" stroke="#f97316" stroke-opacity="0.35"/><text x="1170.0" y="449.0" text-anchor="middle" font-size="13" fill="#f97316" font-weight="700" font-family="Inter, Segoe UI, Arial, sans-serif">Which aliases are missing?</text>
<rect x="1060" y="495" width="220" height="38" rx="19.0" fill="#7c3aed" opacity="0.10" stroke="#7c3aed" stroke-opacity="0.35"/><text x="1170.0" y="519.0" text-anchor="middle" font-size="13" fill="#7c3aed" font-weight="700" font-family="Inter, Segoe UI, Arial, sans-serif">Which tokens test real workflows?</text>
<rect x="1060" y="565" width="220" height="38" rx="19.0" fill="#16a34a" opacity="0.10" stroke="#16a34a" stroke-opacity="0.35"/><text x="1170.0" y="589.0" text-anchor="middle" font-size="13" fill="#16a34a" font-weight="700" font-family="Inter, Segoe UI, Arial, sans-serif">Which rules block too much?</text>
</svg>